{"title":"The Kings Of Summer 2013 BRRip XviD-PsiX","uid":8973018,"size":732029047,"categoryP":"video","categoryS":"movies","magnet":"?xt=urn:btih:9ea672293460f781c2eaa49c6a415e85d9614fb7&amp;dn=The+Kings+Of+Summer+2013+BRRip+XviD-PsiX&amp;tr=udp%3A%2F%2Ftracker.openbittorrent.com%3A80&amp;tr=udp%3A%2F%2Fopen.demonii.com%3A1337&amp;tr=udp%3A%2F%2Ftracker.coppersurfer.tk%3A6969&amp;tr=udp%3A%2F%2Fexodus.desync.com%3A6969","seeders":1,"leechers":0,"uploader":"sakhslitsa","files":3,"time":1380329070,"description":"Three teenage friends, in the ultimate act of independence,\ndecide to spend their summer building a house in the\nwoods and living off the land...\n\n\n\nDirector:\nJordan Vogt-Roberts\nWriter:\nChris Galletta\nStars:\nNick Robinson, Gabriel Basso, Moises Arias\n\n\n\nFormat : AVI\nFormat/Info : Audio Video Interleave\nFile size : 698 MiB\nDuration : 1h 34mn\nOverall bit rate : 1 031 Kbps\nWriting library : VirtualDub build 32661/release\nCopyright : PsiX\n\nVideo\nID : 0\nFormat : MPEG-4 Visual\nFormat profile : Advanced Simple@L5\nFormat settings, BVOP : 2\nFormat settings, QPel : No\nFormat settings, GMC : No warppoints\nFormat settings, Matrix : Default (H.263)\nMuxing mode : Packed bitstream\nCodec ID : XVID\nCodec ID/Hint : XviD\nDuration : 1h 34mn\nBit rate : 893 Kbps\nWidth : 640 pixels\nHeight : 272 pixels\nDisplay aspect ratio : 2.35:1\nFrame rate : 23.976 fps\nColor space : YUV\nChroma subsampling : 4:2:0\nBit depth : 8 bits\nScan type : Progressive\nCompression mode : Lossy\nBits/(Pixel*Frame) : 0.214\nStream size : 605 MiB (87%)\nWriting library : XviD 1.2.1 (UTC 2008-12-04)\n\nAudio\nID : 1\nFormat : MPEG Audio\nFormat version : Version 1\nFormat profile : Layer 3\nMode : Joint stereo\nMode extension : MS Stereo\nCodec ID : 55\nCodec ID/Hint : MP3\nDuration : 1h 34mn\nBit rate mode : Constant\nBit rate : 128 Kbps\nChannel(s) : 2 channels\nSampling rate : 48.0 KHz\nCompression mode : Lossy\nStream size : 86.7 MiB (12%)\nAlignment : Split accross interleaves\nInterleave, duration : 42 ms (1.00 video frame)\nInterleave, preload duration : 500 ms\nWriting library : LAME3.99r\nEncoding settings : -m j -V 4 -q 2 -lowpass 17 -b 128\n\n\n\nEncoded............ PsiX\nSource.............720p-GECKOS (Thanks)\nSubs ............English (srt)\n","torrent":{"xt":"urn:btih:9ea672293460f781c2eaa49c6a415e85d9614fb7","amp;dn":"The+Kings+Of+Summer+2013+BRRip+XviD-PsiX","amp;tr":["udp%3A%2F%2Ftracker.openbittorrent.com%3A80","udp%3A%2F%2Fopen.demonii.com%3A1337","udp%3A%2F%2Ftracker.coppersurfer.tk%3A6969","udp%3A%2F%2Fexodus.desync.com%3A6969"],"infoHash":"9ea672293460f781c2eaa49c6a415e85d9614fb7","infoHashBuffer":{"type":"Buffer","data":[158,166,114,41,52,96,247,129,194,234,164,156,106,65,94,133,217,97,79,183]},"announce":[],"urlList":[]}}